<?xml version="1.0" encoding="UTF-8"?> <svg xmlns="http://www.w3.org/2000/svg" width="70" height="70" viewBox="0 0 70 70" fill="none"> <circle cx="35" cy="35" r="35" fill="#17B198"></circle> <path d="M27.4146 41.7007L35.6046 33.6607C36.2646 33.0207 36.7846 32.3807 37.1646 31.7407C37.5646 31.0807 37.7646 30.3307 37.7646 29.4907C37.7646 28.4907 37.4346 27.7007 36.7746 27.1207C36.1346 26.5207 35.3346 26.2207 34.3746 26.2207C33.3546 26.2207 32.5346 26.5707 31.9146 27.2707C31.2946 27.9507 30.9146 28.8107 30.7746 29.8507L27.2646 29.3107C27.3646 28.4307 27.6146 27.6207 28.0146 26.8807C28.4146 26.1407 28.9246 25.5007 29.5446 24.9607C30.1646 24.4207 30.8846 24.0007 31.7046 23.7007C32.5446 23.3807 33.4546 23.2207 34.4346 23.2207C35.3546 23.2207 36.2346 23.3507 37.0746 23.6107C37.9346 23.8707 38.6946 24.2707 39.3546 24.8107C40.0146 25.3307 40.5346 25.9807 40.9146 26.7607C41.3146 27.5207 41.5146 28.4107 41.5146 29.4307C41.5146 30.1107 41.4246 30.7507 41.2446 31.3507C41.0646 31.9307 40.8146 32.4807 40.4946 33.0007C40.1946 33.5207 39.8346 34.0207 39.4146 34.5007C39.0146 34.9607 38.5746 35.4107 38.0946 35.8507L31.9746 41.7007H41.5446V45.0007H27.4146V41.7007Z" fill="white"></path> </svg> 