<?xml version="1.0" encoding="UTF-8"?> <svg xmlns="http://www.w3.org/2000/svg" width="70" height="70" viewBox="0 0 70 70" fill="none"> <circle cx="35" cy="35" r="35" fill="#17B198"></circle> <path d="M31.7044 32.4907H32.6644C33.2044 32.4907 33.7344 32.4507 34.2544 32.3707C34.7944 32.2707 35.2844 32.1007 35.7244 31.8607C36.1644 31.6207 36.5144 31.3007 36.7744 30.9007C37.0544 30.4807 37.1944 29.9407 37.1944 29.2807C37.1944 28.8007 37.1044 28.3707 36.9244 27.9907C36.7444 27.6107 36.4944 27.2907 36.1744 27.0307C35.8744 26.7707 35.5144 26.5707 35.0944 26.4307C34.6944 26.2907 34.2744 26.2207 33.8344 26.2207C32.9544 26.2207 32.2244 26.4707 31.6444 26.9707C31.0644 27.4707 30.6644 28.1307 30.4444 28.9507L27.0544 28.0807C27.2344 27.3607 27.5344 26.7107 27.9544 26.1307C28.3944 25.5307 28.9144 25.0207 29.5144 24.6007C30.1344 24.1607 30.8244 23.8207 31.5844 23.5807C32.3444 23.3407 33.1444 23.2207 33.9844 23.2207C34.9044 23.2207 35.7744 23.3507 36.5944 23.6107C37.4344 23.8507 38.1644 24.2207 38.7844 24.7207C39.4244 25.2007 39.9244 25.8007 40.2844 26.5207C40.6444 27.2407 40.8244 28.0807 40.8244 29.0407C40.8244 30.1807 40.4744 31.2007 39.7744 32.1007C39.0944 32.9807 38.1744 33.5607 37.0144 33.8407V33.9007C38.3144 34.1607 39.3644 34.7507 40.1644 35.6707C40.9844 36.5707 41.3944 37.6807 41.3944 39.0007C41.3944 40.1007 41.1744 41.0607 40.7344 41.8807C40.3144 42.7007 39.7444 43.3807 39.0244 43.9207C38.3244 44.4607 37.5344 44.8607 36.6544 45.1207C35.7744 45.4007 34.8844 45.5407 33.9844 45.5407C33.0844 45.5407 32.2344 45.4407 31.4344 45.2407C30.6344 45.0607 29.8944 44.7707 29.2144 44.3707C28.5544 43.9707 27.9644 43.4507 27.4444 42.8107C26.9444 42.1707 26.5544 41.4107 26.2744 40.5307L29.6344 39.4807C29.8944 40.3207 30.3744 41.0307 31.0744 41.6107C31.7944 42.1907 32.7244 42.4807 33.8644 42.4807C34.3244 42.4807 34.7844 42.4207 35.2444 42.3007C35.7244 42.1607 36.1444 41.9507 36.5044 41.6707C36.8844 41.3907 37.1844 41.0307 37.4044 40.5907C37.6444 40.1507 37.7644 39.6107 37.7644 38.9707C37.7644 38.2907 37.5944 37.7207 37.2544 37.2607C36.9344 36.7807 36.5244 36.4107 36.0244 36.1507C35.5244 35.8707 34.9644 35.6707 34.3444 35.5507C33.7444 35.4307 33.1644 35.3707 32.6044 35.3707H31.7044V32.4907Z" fill="white"></path> </svg> 