<?xml version="1.0" encoding="UTF-8"?> <svg xmlns="http://www.w3.org/2000/svg" width="70" height="70" viewBox="0 0 70 70" fill="none"> <circle cx="35" cy="35" r="35" fill="#17B198"></circle> <path d="M40.4946 26.9998H31.8246L31.6146 31.5898C31.9546 31.4898 32.3546 31.4198 32.8146 31.3798C33.2946 31.3398 33.7246 31.3198 34.1046 31.3198C35.1446 31.3198 36.1046 31.4698 36.9846 31.7698C37.8846 32.0698 38.6646 32.5098 39.3246 33.0898C39.9846 33.6498 40.4946 34.3498 40.8546 35.1898C41.2346 36.0098 41.4246 36.9598 41.4246 38.0398C41.4246 39.2198 41.2146 40.2798 40.7947 41.2198C40.3946 42.1398 39.8446 42.9198 39.1446 43.5598C38.4446 44.1998 37.6246 44.6898 36.6846 45.0298C35.7446 45.3698 34.7446 45.5398 33.6846 45.5398C31.9046 45.5398 30.4046 45.1298 29.1846 44.3098C27.9646 43.4698 27.0746 42.3298 26.5146 40.8898L29.7846 39.6898C30.0846 40.5298 30.5846 41.2098 31.2846 41.7298C31.9846 42.2298 32.8146 42.4798 33.7746 42.4798C34.3146 42.4798 34.8246 42.3898 35.3046 42.2098C35.7846 42.0298 36.2046 41.7698 36.5646 41.4298C36.9246 41.0898 37.2046 40.6698 37.4046 40.1698C37.6246 39.6498 37.7346 39.0698 37.7346 38.4298C37.7346 37.6098 37.5946 36.9298 37.3146 36.3898C37.0346 35.8498 36.6646 35.4198 36.2046 35.0998C35.7646 34.7598 35.2646 34.5298 34.7046 34.4098C34.1446 34.2698 33.5746 34.1998 32.9946 34.1998C32.5946 34.1998 32.1646 34.2298 31.7046 34.2898C31.2646 34.3498 30.8246 34.4398 30.3846 34.5598C29.9646 34.6598 29.5446 34.7798 29.1246 34.9198C28.7246 35.0598 28.3646 35.2098 28.0446 35.3698L28.4046 23.7598H40.4946V26.9998Z" fill="white"></path> </svg> 