<?xml version="1.0" encoding="UTF-8"?> <svg xmlns="http://www.w3.org/2000/svg" width="60" height="60" viewBox="0 0 60 60" fill="none"> <path d="M30 50C43.785 50 55 38.785 55 25C55 11.215 43.785 0 30 0C16.215 0 5 11.215 5 25C5 38.785 16.215 50 30 50ZM30 5C41.0275 5 50 13.9725 50 25C50 36.0275 41.0275 45 30 45C18.9725 45 10 36.0275 10 25C10 13.9725 18.9725 5 30 5ZM60 51.25C60 56.075 56.075 60 51.25 60H8.75C3.925 60 0 56.075 0 51.25C0 48.515 1.305 45.9025 3.49 44.2575C4.595 43.4275 6.1625 43.6525 6.99 44.75C7.82 45.8525 7.6 47.42 6.4975 48.25C5.545 48.965 5 50.06 5 51.2475C5 53.315 6.6825 54.9975 8.75 54.9975H51.25C53.3175 54.9975 55 53.315 55 51.2475C55 50.0575 54.4525 48.965 53.5 48.2475C52.3975 47.415 52.1775 45.8475 53.01 44.745C53.8375 43.6475 55.4075 43.4225 56.51 44.255C58.7275 45.93 60 48.4775 60 51.25ZM35 30C35 29.0525 34.3225 28.255 33.39 28.0975L25.7875 26.8325C22.4325 26.2725 20 23.3975 20 20C20 15.865 23.365 12.5 27.5 12.5V10C27.5 8.6175 28.62 7.5 30 7.5C31.38 7.5 32.5 8.6175 32.5 10V12.5H33.17C35.8375 12.5 38.3275 13.935 39.665 16.2475C40.355 17.445 39.9475 18.9725 38.7525 19.6625C37.56 20.3575 36.03 19.945 35.3375 18.7525C34.89 17.9775 34.06 17.5 33.17 17.5H27.5C26.1225 17.5 25 18.62 25 20C25 20.9475 25.6775 21.745 26.61 21.9025L34.2125 23.1675C37.5675 23.7275 40 26.6025 40 30C40 34.135 36.635 37.5 32.5 37.5V40C32.5 41.3825 31.38 42.5 30 42.5C28.62 42.5 27.5 41.3825 27.5 40V37.5H26.83C24.1625 37.5 21.6725 36.065 20.335 33.7525C19.645 32.555 20.0525 31.0275 21.2475 30.3375C22.4375 29.6425 23.97 30.055 24.6625 31.2475C25.11 32.0225 25.94 32.5 26.83 32.5H32.5C33.8775 32.5 35 31.38 35 30Z" fill="#17B198"></path> </svg> 