<?xml version="1.0" encoding="UTF-8"?> <svg xmlns="http://www.w3.org/2000/svg" width="512" height="514" viewBox="0 0 512 514" fill="none"> <path d="M256 43.6667C284.299 43.7595 312.298 49.4638 338.378 60.4493C364.457 71.4349 388.1 87.4836 407.936 107.667H341.333C335.675 107.667 330.249 109.914 326.248 113.915C322.247 117.916 320 123.342 320 129C320 134.658 322.247 140.084 326.248 144.085C330.249 148.086 335.675 150.333 341.333 150.333H429.717C440.222 150.328 450.295 146.152 457.724 138.724C465.152 131.296 469.327 121.222 469.333 110.717V22.3334C469.333 16.6754 467.085 11.2492 463.085 7.24842C459.084 3.24764 453.658 1.00003 448 1.00003C442.342 1.00003 436.916 3.24764 432.915 7.24842C428.914 11.2492 426.666 16.6754 426.666 22.3334V66.664C391.406 34.9084 348.002 13.5954 301.314 5.11201C254.626 -3.37142 206.498 1.30962 162.321 18.6309C118.143 35.9522 79.6588 65.2298 51.1787 103.185C22.6986 141.14 5.34679 186.275 1.06643 233.533C0.790875 236.504 1.13717 239.5 2.08324 242.329C3.02931 245.159 4.55442 247.761 6.56139 249.968C8.56836 252.176 11.0132 253.941 13.7401 255.152C16.467 256.363 19.4162 256.992 22.3998 257C27.6176 257.067 32.6725 255.183 36.5749 251.719C40.4773 248.254 42.9462 243.458 43.4984 238.269C48.2475 185.165 72.6819 135.756 112.001 99.7486C151.321 63.7408 202.684 43.7369 256 43.6667Z" fill="#17B198"></path> <path d="M489.621 257C484.403 256.934 479.348 258.817 475.446 262.281C471.544 265.746 469.075 270.542 468.522 275.731C464.996 316.333 449.897 355.072 425.016 387.351C400.136 419.63 366.518 444.095 328.152 457.844C289.786 471.592 248.281 474.047 208.562 464.917C168.843 455.787 132.576 435.455 104.064 406.333H170.666C176.324 406.333 181.751 404.086 185.751 400.085C189.752 396.084 192 390.658 192 385C192 379.342 189.752 373.916 185.751 369.915C181.751 365.914 176.324 363.667 170.666 363.667H82.2824C77.0792 363.664 71.9264 364.687 67.1187 366.677C62.311 368.666 57.9427 371.584 54.2634 375.264C50.5842 378.943 47.6662 383.311 45.6763 388.119C43.6864 392.927 42.6636 398.079 42.6664 403.283V491.667C42.6664 497.325 44.914 502.751 48.9148 506.752C52.9156 510.752 58.3418 513 63.9998 513C69.6577 513 75.0839 510.752 79.0847 506.752C83.0855 502.751 85.3331 497.325 85.3331 491.667V447.336C120.593 479.092 163.998 500.405 210.686 508.888C257.373 517.371 305.501 512.69 349.679 495.369C393.857 478.048 432.341 448.77 460.821 410.815C489.301 372.86 506.653 327.726 510.933 280.467C511.209 277.496 510.862 274.5 509.916 271.671C508.97 268.841 507.445 266.239 505.438 264.032C503.431 261.824 500.986 260.059 498.259 258.848C495.533 257.637 492.583 257.008 489.6 257H489.621Z" fill="#17B198"></path> </svg> 