<?xml version="1.0" encoding="UTF-8"?> <svg xmlns="http://www.w3.org/2000/svg" width="133" height="33" viewBox="0 0 133 33" fill="none"> <path fill-rule="evenodd" clip-rule="evenodd" d="M6.97315 12.0731C8.31109 12.0731 9.37689 12.6209 10.1706 13.7164L12.8918 11.3018C12.2342 10.4075 11.3725 9.77596 10.3066 9.40701C9.24083 9.03811 8.16369 8.85366 7.0752 8.85366C6.25882 8.85366 5.4538 8.95427 4.6601 9.15549C3.86641 9.3567 3.16343 9.66972 2.55115 10.0945C1.93887 10.5193 1.44565 11.0615 1.07149 11.721C0.697313 12.3806 0.51023 13.1575 0.51023 14.0518C0.51023 14.4906 0.549446 14.8887 0.627875 15.2461C2.13012 15.0276 3.66983 14.8957 5.23875 14.8569L5.23837 14.8567C4.8075 14.6332 4.59208 14.2754 4.59208 13.7835C4.59208 13.1799 4.85285 12.7439 5.37442 12.4756C5.896 12.2073 6.42889 12.0731 6.97315 12.0731ZM4.91522 18.5289C4.41691 18.4336 3.94055 18.2999 3.48615 18.1276C5.25239 17.8778 7.0699 17.7476 8.92527 17.7476C10.1734 17.7476 11.4043 17.8065 12.6141 17.9211C12.6626 17.9826 12.7099 18.0454 12.7558 18.1097C13.1866 18.7134 13.4021 19.5407 13.4021 20.5914C13.4021 21.5529 13.1923 22.3633 12.7727 23.0228C12.3532 23.6824 11.809 24.2135 11.14 24.6159C10.471 25.0183 9.71706 25.309 8.87801 25.4878C8.03895 25.6666 7.19992 25.7561 6.36087 25.7561C5.09095 25.7561 3.92311 25.5772 2.85729 25.2195C1.79147 24.8618 0.83905 24.2135 0 23.2744L2.72123 20.7591C3.2428 21.3404 3.80405 21.8155 4.40499 22.1844C5.00593 22.5534 5.73725 22.7378 6.59898 22.7378C6.89377 22.7378 7.19991 22.7043 7.51739 22.6372C7.83487 22.5702 8.12967 22.4583 8.40179 22.3018C8.67391 22.1453 8.89501 21.9497 9.06509 21.715C9.23517 21.4802 9.32021 21.2063 9.32021 20.8933C9.32021 20.3343 9.10478 19.9207 8.67391 19.6525C8.24305 19.3841 7.69881 19.1662 7.04118 18.9985C6.38355 18.8308 5.67489 18.6743 4.91522 18.5289ZM14.8647 25.3537V18.2017C16.2608 18.4181 17.6236 18.7093 18.9466 19.07V25.3537H14.8647ZM25.5115 25.3537L21.0518 19.7136C24.4359 20.8631 27.5147 22.479 30.1633 24.4612L30.9199 25.3537H25.5115ZM23.4706 16.5671L28.1754 22.1164C24.5153 19.1964 19.958 17.0012 14.8647 15.8217V0H18.9466V15.9299L25.2394 9.2561H30.4778L23.4706 16.5671ZM35.5801 9.2561H31.4982V25.3537H35.5801V9.2561ZM31.6512 2.09603C31.1638 2.57673 30.9199 3.14126 30.9199 3.78963C30.9199 4.43801 31.1638 5.00254 31.6512 5.48323C32.1388 5.96392 32.7568 6.20427 33.5052 6.20427C34.2534 6.20427 34.8827 5.97511 35.393 5.51677C35.9032 5.05843 36.1583 4.48273 36.1583 3.78963C36.1583 3.09655 35.9032 2.52083 35.393 2.0625C34.8827 1.60417 34.2534 1.375 33.5052 1.375C32.7568 1.375 32.1388 1.61534 31.6512 2.09603ZM42.7232 0H38.6414V25.3537H42.7232V0ZM49.9005 0H45.8187V25.3537H49.9005V0ZM58.4043 12.0731C59.7423 12.0731 60.8081 12.6209 61.6018 13.7164L64.323 11.3018C63.6654 10.4075 62.8037 9.77596 61.7378 9.40701C60.672 9.03811 59.5949 8.85366 58.5064 8.85366C57.69 8.85366 56.885 8.95427 56.0913 9.15549C55.2977 9.3567 54.5946 9.66972 53.9823 10.0945C53.37 10.5193 52.8769 11.0615 52.5027 11.721C52.1285 12.3806 51.9414 13.1575 51.9414 14.0518C51.9414 15.0803 52.1569 15.8851 52.5877 16.4664C53.0186 17.0478 53.5628 17.5005 54.2205 17.8247C54.8781 18.1489 55.5867 18.3836 56.3464 18.5289C57.1061 18.6743 57.8147 18.8308 58.4724 18.9985C59.13 19.1662 59.6742 19.3841 60.1052 19.6525C60.536 19.9207 60.7514 20.3343 60.7514 20.8933C60.7514 21.2063 60.6663 21.4802 60.4963 21.715C60.3262 21.9497 60.1052 22.1453 59.833 22.3018C59.5608 22.4583 59.2661 22.5702 58.9486 22.6372C58.6311 22.7043 58.3249 22.7378 58.0302 22.7378C57.1684 22.7378 56.4371 22.5534 55.8362 22.1844C55.2353 21.8155 54.674 21.3404 54.1525 20.7591L51.4312 23.2744C52.2703 24.2135 53.2227 24.8618 54.2885 25.2195C55.3543 25.5772 56.5221 25.7561 57.792 25.7561C58.6311 25.7561 59.4701 25.6666 60.3092 25.4878C61.1483 25.309 61.9022 25.0183 62.5712 24.6159C63.2402 24.2135 63.7844 23.6824 64.2039 23.0228C64.6235 22.3633 64.8333 21.5529 64.8333 20.5914C64.8333 19.5407 64.6178 18.7134 64.187 18.1097C63.7561 17.5061 63.2118 17.031 62.5542 16.6844C61.8966 16.3379 61.188 16.0808 60.4283 15.9131C59.6686 15.7455 58.96 15.5834 58.3023 15.4268C57.6447 15.2704 57.1004 15.0803 56.6695 14.8567C56.2387 14.6332 56.0232 14.2754 56.0232 13.7835C56.0232 13.1799 56.284 12.7439 56.8056 12.4756C57.3272 12.2073 57.8601 12.0731 58.4043 12.0731ZM70.1737 9.25609H66.2959V21.3257C67.5562 20.3005 68.9248 19.3651 70.3865 18.5318C70.2899 18.1329 70.2417 17.7239 70.2417 17.3049C70.2417 16.6789 70.3494 16.0752 70.5649 15.4939C70.7802 14.9126 71.0978 14.3984 71.5173 13.9512C71.9367 13.5041 72.4414 13.1463 73.031 12.8781C73.6205 12.6098 74.2895 12.4756 75.0378 12.4756C75.7862 12.4756 76.4552 12.6098 77.0447 12.8781C77.6344 13.1463 78.1389 13.5041 78.5585 13.9512C78.8668 14.2799 79.12 14.6448 79.3182 15.0461C80.67 14.7269 82.0603 14.4825 83.4821 14.3186C83.4475 14.2064 83.4105 14.0952 83.3716 13.9847C83.0088 12.9563 82.4759 12.062 81.7729 11.3018C81.0699 10.5417 80.2195 9.94358 79.2217 9.50762C78.224 9.07164 77.1015 8.85366 75.8542 8.85366C74.6977 8.85366 73.6205 9.07723 72.6227 9.52439C71.6249 9.97153 70.8313 10.687 70.2417 11.6707H70.1737V9.25609ZM96.2294 15.0512C97.4894 15.3495 98.7156 15.7126 99.9027 16.1358V16.0976C99.9027 15.7175 99.8919 15.2759 99.8692 14.7728C99.8465 14.2698 99.7727 13.75 99.6475 13.2134C99.5234 12.6769 99.3195 12.1458 99.0357 11.6205C98.752 11.095 98.3497 10.6311 97.8281 10.2286C97.3065 9.82623 96.6489 9.49644 95.8553 9.23933C95.0615 8.98221 94.0865 8.85366 92.93 8.85366C91.6373 8.85366 90.3844 9.05488 89.1712 9.45731C87.958 9.85972 86.8979 10.5193 85.9908 11.436L88.1338 13.5487C88.678 13.0345 89.3243 12.6265 90.0726 12.3247C90.821 12.0229 91.626 11.8719 92.4877 11.8719C93.5762 11.8719 94.472 12.1235 95.1749 12.6265C95.8779 13.1295 96.2294 13.8842 96.2294 14.8903V15.0512ZM99.9027 18.2118C96.9168 17.4101 93.7276 16.9767 90.415 16.9767C89.1494 16.9767 87.9019 17.0399 86.6767 17.1628C86.1491 17.5749 85.7278 18.0862 85.4125 18.6966C85.0951 19.3115 84.9364 20.0549 84.9364 20.9269C84.9364 21.7317 85.1064 22.436 85.4466 23.0396C85.7867 23.6433 86.2345 24.1463 86.7902 24.5488C87.3457 24.9512 87.9807 25.2531 88.695 25.4543C89.4093 25.6555 90.1407 25.7561 90.889 25.7561C91.9775 25.7561 92.9753 25.5493 93.8823 25.1357C94.7894 24.722 95.5377 24.0569 96.1274 23.1403H96.2294V25.3537H99.9027V18.2118ZM83.9132 17.5468C82.4606 17.8056 81.0467 18.1495 79.6794 18.5716C79.6335 18.7552 79.5773 18.9366 79.5108 19.1158C79.2954 19.6971 78.978 20.2113 78.5585 20.6586C78.1389 21.1057 77.6344 21.4634 77.0447 21.7317C76.4552 22 75.7862 22.1342 75.0378 22.1342C74.2895 22.1342 73.6205 22 73.031 21.7317C72.9374 21.6892 72.846 21.6443 72.7567 21.5972C70.3109 23.0253 68.1327 24.742 66.2959 26.6871V33H70.3778V23.3079H70.4798C70.6839 23.5763 70.9447 23.8501 71.2622 24.1296C71.5796 24.409 71.9651 24.6718 72.4187 24.9177C72.8722 25.1637 73.3937 25.3649 73.9834 25.5213C74.573 25.6779 75.2533 25.7561 76.0243 25.7561C77.1808 25.7561 78.2467 25.5381 79.2217 25.1021C80.1968 24.6661 81.0302 24.0681 81.7219 23.3079C82.4135 22.5477 82.9521 21.6534 83.3376 20.625C83.6968 19.6668 83.8886 18.6407 83.9132 17.5468ZM101.891 18.8092C106.247 20.2627 110.103 22.5191 113.184 25.3548C112.756 25.4815 112.344 25.5762 111.945 25.6387C111.445 25.717 111.015 25.7561 110.652 25.7561C109.427 25.7561 108.271 25.5549 107.182 25.1524C106.094 24.75 105.153 24.1799 104.359 23.442C103.566 22.7043 102.936 21.8155 102.471 20.7759C102.196 20.1614 102.003 19.5058 101.891 18.8092ZM113.238 25.3387C113.328 25.3116 113.418 25.2829 113.509 25.2531C114.054 25.0742 114.592 24.8394 115.125 24.5488C115.658 24.2581 116.129 23.9116 116.537 23.5091L113.815 20.625C113.43 21.1169 112.965 21.4913 112.42 21.7485C111.877 22.0056 111.287 22.1342 110.652 22.1342C110.483 22.1342 110.318 22.1273 110.158 22.1137C111.288 23.1161 112.318 24.1946 113.238 25.3387ZM106.196 19.1623C104.813 18.2996 103.337 17.5316 101.783 16.8702C101.831 15.766 102.06 14.754 102.471 13.8338C102.936 12.7942 103.566 11.9055 104.359 11.1677C105.153 10.4298 106.094 9.85972 107.182 9.45731C108.271 9.05488 109.427 8.85366 110.652 8.85366C111.695 8.85366 112.744 9.04929 113.799 9.44055C114.853 9.83177 115.777 10.4523 116.571 11.3018L113.748 14.0854C113.271 13.5935 112.772 13.2022 112.251 12.9115C111.729 12.6209 111.196 12.4756 110.652 12.4756C109.903 12.4756 109.234 12.6098 108.645 12.8781C108.055 13.1463 107.551 13.5041 107.131 13.9512C106.711 14.3984 106.394 14.9126 106.179 15.4939C105.964 16.0752 105.856 16.6789 105.856 17.3049C105.856 17.9309 105.964 18.5345 106.179 19.1158C106.184 19.1314 106.19 19.1469 106.196 19.1623ZM95.1409 18.1433H95.9913V19.0488C95.9913 20.189 95.6569 21.0889 94.9878 21.7485C94.3189 22.4081 93.2815 22.7378 91.8754 22.7378C91.5353 22.7378 91.1951 22.6987 90.855 22.6204C90.5149 22.5422 90.2087 22.4136 89.9366 22.2347C89.6645 22.0559 89.4434 21.8379 89.2732 21.5808C89.1032 21.3236 89.0182 21.0051 89.0182 20.625C89.0182 20.0437 89.2335 19.5909 89.6645 19.2668C90.0953 18.9426 90.6226 18.6966 91.2462 18.5289C91.8698 18.3613 92.5331 18.2551 93.2361 18.2104C93.9391 18.1656 94.574 18.1433 95.1409 18.1433ZM120.55 18.7134C120.686 19.9207 121.163 20.8598 121.979 21.5305C122.795 22.2012 123.782 22.5366 124.938 22.5366C125.959 22.5366 126.815 22.3297 127.507 21.9162C128.198 21.5025 128.805 20.9828 129.326 20.3567L132.251 22.5366C131.3 23.6992 130.234 24.5264 129.054 25.0183C127.875 25.5102 126.639 25.7561 125.346 25.7561C124.122 25.7561 122.966 25.5549 121.877 25.1524C120.789 24.75 119.848 24.1799 119.054 23.442C118.26 22.7043 117.631 21.8155 117.166 20.7759C116.701 19.7362 116.469 18.5793 116.469 17.3049C116.469 16.0305 116.701 14.8735 117.166 13.8338C117.631 12.7942 118.26 11.9055 119.054 11.1677C119.848 10.4298 120.789 9.85972 121.877 9.45731C122.966 9.05488 124.122 8.85366 125.346 8.85366C126.48 8.85366 127.517 9.04929 128.459 9.44055C129.4 9.83177 130.205 10.3964 130.874 11.1341C131.543 11.8719 132.065 12.783 132.438 13.8674C132.813 14.9517 133 16.1981 133 17.6067V18.7134H120.55ZM128.918 15.6951C128.896 14.5102 128.521 13.5767 127.795 12.8948C127.07 12.2129 126.061 11.8719 124.769 11.8719C123.544 11.8719 122.575 12.2184 121.86 12.9115C121.145 13.6046 120.709 14.5325 120.55 15.6951H128.918Z" fill="#17B198"></path> </svg> 