<?xml version="1.0" encoding="UTF-8"?> <svg xmlns="http://www.w3.org/2000/svg" width="75" height="68" viewBox="0 0 75 68" fill="none"> <path d="M75 15.4538V18.5446C75 20.2507 73.6031 21.6354 71.875 21.6354C70.1469 21.6354 68.75 20.2507 68.75 18.5446V15.4538C68.75 10.3417 64.5438 6.18154 59.375 6.18154H15.625C10.4563 6.18154 6.25 10.3417 6.25 15.4538V46.3615C6.25 51.4737 10.4563 55.6338 15.625 55.6338H25C26.7281 55.6338 28.125 57.0185 28.125 58.7246C28.125 60.4307 26.7281 61.8154 25 61.8154H15.625C7.00938 61.8154 0 54.8828 0 46.3615V15.4538C0 6.93259 7.00938 0 15.625 0H59.375C67.9906 0 75 6.93259 75 15.4538ZM46.875 21.6354H59.375C61.1031 21.6354 62.5 20.2507 62.5 18.5446C62.5 16.8385 61.1031 15.4538 59.375 15.4538H46.875C45.1469 15.4538 43.75 16.8385 43.75 18.5446C43.75 20.2507 45.1469 21.6354 46.875 21.6354ZM72.2531 30.5337C74.0219 32.2831 75 34.6135 75 37.0892C75 39.5649 74.0219 41.8954 72.2531 43.6478L51.2938 64.3776C48.9344 66.7112 45.7938 68 42.4563 68H37.5C35.7719 68 34.375 66.6153 34.375 64.9092V60.0073C34.375 56.7063 35.675 53.6001 38.0375 51.2666L58.9969 30.5368C62.6531 26.9206 68.5969 26.9206 72.2531 30.5368V30.5337ZM68.75 37.0892C68.75 36.264 68.425 35.4882 67.8344 34.9041C66.6125 33.6956 64.6375 33.6987 63.4156 34.9041L42.4563 55.6338C41.2938 56.7867 40.625 58.3784 40.625 60.0042V61.8154H42.4563C44.125 61.8154 45.6937 61.1725 46.875 60.0042L67.8344 39.2744C68.425 38.6902 68.75 37.9145 68.75 37.0892ZM28.125 40.18H21.0375C19.925 40.18 18.8875 39.5866 18.3281 38.6346C17.4687 37.1541 15.5594 36.6442 14.0594 37.5065C12.5656 38.3626 12.0531 40.2511 12.9219 41.7285C14.5906 44.5874 17.7031 46.3615 21.0406 46.3615H21.8781C21.8781 48.0676 23.275 49.4523 25.0031 49.4523C26.7313 49.4523 28.1281 48.0676 28.1281 46.3615C33.2969 46.3615 37.5031 42.2014 37.5031 37.0892C37.5031 32.8858 34.4594 29.3314 30.2688 28.6422L20.7656 27.0751C19.6 26.8835 18.7531 25.8945 18.7531 24.7261C18.7531 23.0231 20.1531 21.6354 21.8781 21.6354H28.9656C30.0781 21.6354 31.1156 22.2288 31.675 23.1808C32.5344 24.6582 34.4406 25.165 35.9438 24.3089C37.4375 23.4528 37.95 21.5643 37.0813 20.0869C35.4125 17.2279 32.3 15.4508 28.9625 15.4508H28.125C28.125 13.7446 26.7281 12.36 25 12.36C23.2719 12.36 21.875 13.7446 21.875 15.4508C16.7063 15.4508 12.5 19.6109 12.5 24.7231C12.5 28.9265 15.5438 32.4809 19.7344 33.1701L29.2375 34.7371C30.4031 34.9288 31.25 35.9178 31.25 37.0861C31.25 38.7891 29.85 40.1769 28.125 40.1769V40.18ZM43.75 30.9077C43.75 32.6138 45.15 33.9985 46.875 33.9985C48.6 33.9985 50 32.6138 50 30.9077C50 29.2016 48.6 27.8169 46.875 27.8169C45.15 27.8169 43.75 29.2016 43.75 30.9077Z" fill="#17B198"></path> </svg> 