<?xml version="1.0" encoding="UTF-8"?> <svg xmlns="http://www.w3.org/2000/svg" width="60" height="46" viewBox="0 0 60 46" fill="none"> <path d="M13.75 35.5C15.8211 35.5 17.5 33.8211 17.5 31.75C17.5 29.6789 15.8211 28 13.75 28C11.6789 28 10 29.6789 10 31.75C10 33.8211 11.6789 35.5 13.75 35.5Z" fill="#17B198"></path> <path d="M47.5 0.5H12.5C9.18601 0.50397 6.00889 1.8222 3.66555 4.16555C1.3222 6.50889 0.00396964 9.68601 0 13V33C0.00396964 36.314 1.3222 39.4911 3.66555 41.8345C6.00889 44.1778 9.18601 45.496 12.5 45.5H47.5C50.814 45.496 53.9911 44.1778 56.3345 41.8345C58.6778 39.4911 59.996 36.314 60 33V13C59.996 9.68601 58.6778 6.50889 56.3345 4.16555C53.9911 1.8222 50.814 0.50397 47.5 0.5ZM12.5 5.5H47.5C49.4891 5.5 51.3968 6.29018 52.8033 7.6967C54.2098 9.10322 55 11.0109 55 13H5C5 11.0109 5.79018 9.10322 7.1967 7.6967C8.60322 6.29018 10.5109 5.5 12.5 5.5ZM47.5 40.5H12.5C10.5109 40.5 8.60322 39.7098 7.1967 38.3033C5.79018 36.8968 5 34.9891 5 33V18H55V33C55 34.9891 54.2098 36.8968 52.8033 38.3033C51.3968 39.7098 49.4891 40.5 47.5 40.5Z" fill="#17B198"></path> </svg> 